<svg xmlns="http://www.w3.org/2000/svg" width="766" height="766"><path d="M0 383.001v383.002l383.25-.252 383.25-.251.251-382.75L767.003 0H581.651l2.026 2.25c3.92 4.355 3.482 4.858-1.15 1.323C579.953 1.608 577.376 0 576.801 0c-1.151 0-1.127.038 4.514 7.095C589.535 17.381 595 34.424 595 49.774c0 8.447-1.587 19-3.141 20.887-.526.639-.588 1.388-.139 1.666 2.399 1.483 17.553-23.066 18.802-30.458.36-2.128.862-3.869 1.116-3.869.999 0 6.898 3.334 7.474 4.225.336.52.968.795 1.404.61.437-.184.909.452 1.05 1.415.145.99-.382 1.75-1.214 1.75-.808 0-1.187.457-.842 1.016.346.559.972.804 1.392.544.421-.259.765.158.765.928 0 .771-.467 1.313-1.038 1.206-.571-.107-1.059.749-1.084 1.902-.025 1.153-.604 2.77-1.286 3.592-.683.823-.908 1.864-.5 2.314.407.45.157.481-.558.069-.912-.526-.991-1.119-.265-1.993.741-.894.63-1.245-.396-1.245-.786 0-1.341.488-1.234 1.084.107.596-.293.996-.889.889-.596-.107-1.084.435-1.084 1.206 0 .77.344 1.187.765.928.42-.26 1.051-.008 1.402.56.351.568.982.82 1.402.56.421-.259.765.158.765.928 0 .771-.488 1.313-1.084 1.206-.595-.107-.959.402-.808 1.13.151.729-.208 1.026-.799.661-.741-.458-.754-1.048-.04-1.907.741-.894.63-1.245-.396-1.245-.786 0-1.341.488-1.234 1.084.107.596-.293.996-.889.889-.596-.107-1.084.435-1.084 1.206 0 .77.344 1.187.765.928.42-.26 1.051-.008 1.402.56.351.568 1.17.723 1.819.344.65-.378.393.214-.571 1.315-.964 1.102-1.414 2.342-1 2.755.414.414.08.603-.741.419-1.082-.241-1.474.514-1.426 2.75.04 1.873-.437 3.084-1.214 3.084-.703 0-.968-.488-.588-1.084.38-.596.697-1.801.706-2.679.008-.878.599-2.301 1.314-3.161.895-1.079.965-1.771.225-2.228-.591-.365-.95-.068-.799.661.151.728-.21 1.237-.803 1.131-.596-.106-1.046 1.233-1.007 3 .039 1.767-.41 3.106-1.006 2.999-.591-.107-1.076.43-1.076 1.194s.446 1.301.991 1.194c.546-.107 1.075 1.02 1.177 2.504.101 1.483-.304 2.608-.901 2.5-.606-.111-1.054 1.211-1.015 2.995.039 1.755-.411 3.105-1 3-.589-.106-1.039 1.244-1 3 .039 1.755-.411 3.105-1 3-.589-.106-1.039 1.244-1 3 .039 1.767-.411 3.106-1.007 3-.593-.106-.954.403-.803 1.131.151.729-.208 1.026-.799.661-.74-.457-.67-1.149.225-2.228.715-.86 1.306-2.283 1.314-3.161.009-.878.452-2.271.985-3.096.533-.825.983-2.175 1-3 .017-.825.467-2.175 1-3 .533-.825.976-2.218.985-3.096.008-.878.599-2.301 1.314-3.161.895-1.079.965-1.771.225-2.228-.591-.365-.95-.068-.799.661.151.728-.21 1.237-.803 1.131-.596-.106-1.046 1.233-1.007 3 .039 1.756-.411 3.106-1 3-.589-.105-1.039 1.245-1 3 .045 2.04-.379 3.103-1.172 2.943-.684-.137-1.13.313-.993 1 .138.688-.238 1.163-.833 1.056-.596-.107-1.084.43-1.084 1.194s.263 1.301.584 1.194c.321-.107.583.256.583.806s-.277.908-.616.795c-.339-.113-.564.787-.5 2 .064 1.213-.386 2.113-1 2-.614-.113-1.064.787-1 2 .064 1.213-.371 2.118-.967 2.011-.596-.107-1.084.404-1.084 1.137 0 .732.713 1.227 1.584 1.099.92-.135 1.583-1.2 1.583-2.542 0-1.342.663-2.407 1.583-2.542.871-.128 1.584.367 1.584 1.099 0 .733-.488 1.244-1.084 1.137-.596-.107-1.031.798-.967 2.011.064 1.213-.386 2.113-1 2-.614-.113-1.064.787-1 2 .064 1.213-.161 2.113-.5 2-.339-.113-.616.245-.616.795s.262.913.583.806c.321-.107.584.43.584 1.194s-.488 1.301-1.084 1.194c-.596-.107-.933.481-.751 1.306.216.972-.565.658-2.219-.895-1.403-1.318-2.271-2.85-1.928-3.405.343-.555.204-.75-.309-.433s-5.42-3.018-10.904-7.411c-15.879-12.719-27.578-19.336-51.843-29.321l-14.871-6.119-5.879-9.358C502.508 53.509 502 52.212 502 47.06c0-10.235 6.206-28.365 13.921-40.67L519.928 0H0v383.001m.495.499c0 210.65.115 296.974.255 191.831.14-105.142.14-277.492 0-383C.61 86.824.495 172.85.495 383.5M503.405 4.25L501.5 6.5l2.25-1.905c1.238-1.048 2.25-2.06 2.25-2.25 0-.8-.805-.209-2.595 1.905m-4.646 6c-3.627 4.756-8.764 15.338-8.725 17.971.02 1.287 1.248-.795 2.821-4.78 1.532-3.882 4.238-9.17 6.014-11.75 3.682-5.352 3.608-6.317-.11-1.441M145.136 39.614c-.089.726-3.352 1.12-9.386 1.133-15.558.033-27.642 5.457-41.511 18.631-8.267 7.853-18.191 21.941-20.613 29.264C71.601 94.762 70.447 103 71.614 103c.487 0 2.011-4.161 3.386-9.246l2.5-9.246.561 10.496c1.262 23.626 10.742 36.943 29.746 41.784l7.308 1.861-3.928 1.177c-2.161.647-5.921 1.45-8.356 1.784C94.578 142.741 73 138.222 73 135.363c0-2.393-2.734-1.467-5.571 1.887-3.804 4.498-7.23 12.316-8.946 20.415-1.845 8.707-1.867 26.07-.043 33.824.958 4.075 1.086 6.378.398 7.206-1.016 1.224-.367 3.305 1.03 3.305.412 0 1.492-.563 2.399-1.25 1.526-1.157 1.503-1.77-.309-8.228-2.739-9.763-2.462-10.744 1.41-4.995 16.793 24.937 48.425 25.686 74.901 1.774 4.751-4.291 12.638-12.751 17.527-18.801 4.89-6.05 15.27-17.836 23.068-26.192l14.178-15.192 1.062-8.308c2.626-20.521-3.449-39.284-18.787-58.031-5.796-7.085-12.936-13.311-19.488-16.993-2.476-1.392-3.84-2.883-3.861-4.218-.03-1.93-.119-1.951-1.36-.316-1.853 2.441-4.385 2.183-4.902-.5-.239-1.237-.495-1.749-.57-1.136M519 41.85c0 1.939 4.48 8.673 7.333 11.022 2.323 1.913 2.122 1.089-1.548-6.353-3.111-6.31-5.785-8.468-5.785-4.669m9-.587c0 1.75 6.83 11.737 8.027 11.737 1.423 0 1.315-.282-2.644-6.928-3.46-5.808-5.383-7.526-5.383-4.809m89.306 8.154c.107.596-.293.996-.889.889-.596-.107-1.084.455-1.084 1.25 0 .794.221 1.223.492.953.27-.271 1.059-.02 1.753.555.945.785 1.188.595.97-.758-.16-.993.094-2.293.565-2.889.53-.672.312-1.084-.573-1.084-.786 0-1.341.488-1.234 1.084M145.442 86.093c-.705 1.141 6.613 9.272 10.021 11.133 1.934 1.057 1.935 1.03.098-1.827-6.524-10.143-8.486-11.948-10.119-9.306M141 89.35c0 1.518 5.223 9.052 7.064 10.189.657.407 1.001.339.763-.15a1008.5 1008.5 0 01-2.88-6.115C143.662 88.392 141 86.281 141 89.35m-71.393 18.232C68.51 110.44 68.924 122 70.122 122c.81 0 .798.392-.043 1.404-1.223 1.474-.534 6.197 1.048 7.174.526.326.793-4.688.639-11.999-.252-11.905-.78-14.592-2.159-10.997m525.618 3.594c.151.728-.217 1.235-.818 1.126-.601-.108-1.033.909-.961 2.262.072 1.352.451 2.454.843 2.447.391-.006 1.026-.011 1.411-.011s.166-.534-.486-1.186c-.915-.915-.832-1.579.365-2.901 1.057-1.168 1.204-1.929.461-2.388-.606-.375-.968-.087-.815.651M111 173.587c0 2.108 5.728 10.005 8.643 11.915 2.277 1.492 2.298 1.472 1.273-1.222-2.441-6.421-6.294-12.28-8.075-12.28-1.014 0-1.841.712-1.841 1.587M67 204c0 .55.702 1 1.559 1s1.281-.45.941-1c-.34-.55-1.041-1-1.559-1s-.941.45-.941 1m-4.015 2.046c-1.367 1.05-2.009 1.92-1.426 1.932 1.445.03 5.062-2.69 4.424-3.328-.282-.282-1.631.346-2.998 1.396m3.265 4.616c-.687.278-1.25.944-1.25 1.48 0 .537.524.652 1.166.256.681-.421 2.157.489 3.553 2.191l2.388 2.911-1.739-3.75c-1.776-3.832-1.95-3.962-4.118-3.088" fill="undefined" fill-rule="evenodd"/></svg>